#!OML:ASF E:\Steps\Project 1\Capture day 1\Session 2\Subject.ASF
:FULLY-SPECIFIED
:DEGREES
191
root 4.0822 17.4208 15.7843 -158.524 -15.2179 188.301
lowerback -23.8704 -8.46915 -14.2059
upperback -1.18214 -7.90007 -0.148448
thorax 13.0929 -4.66939 4.6033
lowerneck -1.7502 -9.00636 -0.593648
upperneck 22.7676 -12.2003 6.62059
head 7.75673 -4.63727 1.46788
rclavicle -5.30755e-014 -1.59028e-014
rhumerus -65.427 -6.14172 -78.153
rradius 44.2691
rwrist -11.3947
rhand -0.617905 -52.4649
rfingers 7.12502
rthumb 24.9984 -80.8494
lclavicle -5.30755e-014 -1.59028e-014
lhumerus -35.8839 -25.1734 56.3508
lradius 46.0818
lwrist 7.96175
lhand -20.0514 -10.5763
lfingers 7.12502
lthumb 6.29016 19.3103
rfemur -37.98 4.57035 -17.3886
rtibia 5.01665
rfoot -5.05107 -42.0258
rtoes 19.5838
lfemur -14.5149 -20.1714 11.5808
ltibia 33.0879
lfoot -37.7763 6.85659
ltoes -36.1565
192
root 4.2056 17.3418 15.6784 -158.276 -15.3365 187.88
lowerback -23.7151 -8.45192 -14.2844
upperback -1.17964 -7.87627 -0.161905
thorax 13.0234 -4.65967 4.65526
lowerneck -1.59625 -8.89706 -0.942753
upperneck 22.4809 -12.0593 6.87142
head 7.66483 -4.6031 1.62264
rclavicle -4.17448e-014 -4.45278e-014
rhumerus -65.8525 -5.54852 -78.2946
rradius 44.452
rwrist -11.28
rhand -1.50253 -55.0299
rfingers 7.12502
rthumb 24.1505 -83.5297
lclavicle -4.17448e-014 -4.45278e-014
lhumerus -36.1749 -25.0539 56.2277
lradius 46.3105
lwrist 7.6954
lhand -19.856 -10.3101
lfingers 7.12502
lthumb 6.47882 19.5708
rfemur -37.7375 5.60368 -18.2113
rtibia 4.45114
rfoot -7.01127 -42.7738
rtoes 22.5909
lfemur -14.1236 -20.292 11.7221
ltibia 32.5836
lfoot -37.8902 6.87986
ltoes -35.703
193
root 4.33382 17.254 15.5645 -157.953 -15.6549 187.092
lowerback -23.5946 -8.54608 -14.6539
upperback -0.993986 -7.88117 -0.254634
thorax 13.2035 -4.6875 4.73865
lowerneck -1.81136 -8.80989 -1.33627
upperneck 22.2295 -12.0024 7.21604
head 7.66272 -4.60196 1.78983
rclavicle -1.35174e-014 -1.49486e-013
rhumerus -66.0566 -5.14143 -78.3193
rradius 44.6412
rwrist -11.4814
rhand -1.32106 -54.893
rfingers 7.12502
rthumb 24.3244 -83.3695
lclavicle -1.35174e-014 -1.49486e-013
lhumerus -36.275 -25.1246 56.0717
lradius 46.6831
lwrist 7.62391
lhand -20.0155 -10.341
lfingers 7.12502
lthumb 6.32485 19.5446
rfemur -37.1839 6.43117 -19.2927
rtibia 3.74298
rfoot -8.79557 -43.3445
rtoes 25.1944
lfemur -13.9297 -20.5111 11.6111
ltibia 32.245
lfoot -38.0126 6.72186
ltoes -35.6428
194
root 4.4589 17.1664 15.4558 -157.514 -15.9697 186.442
lowerback -23.5299 -8.51705 -14.6813
upperback -0.866184 -7.81229 -0.396778
thorax 13.2858 -4.65838 4.62556
lowerneck -1.76554 -6.53148 -1.30473
upperneck 21.2548 -12.8155 7.90395
head 7.42727 -6.4415 1.75955
rclavicle 6.75868e-014 5.725e-014
rhumerus -66.2273 -4.91596 -78.3111
rradius 44.6731
rwrist -11.5872
rhand -0.226895 -52.991
rfingers 7.12502
rthumb 25.373 -81.3228
lclavicle 6.75868e-014 5.725e-014
lhumerus -36.0969 -25.0051 55.7815
lradius 46.733
lwrist 7.36163
lhand -20.2468 -10.7699
lfingers 7.12502
lthumb 6.10156 19.1222
rfemur -36.8766 7.10989 -20.0743
rtibia 3.26855
rfoot -9.53447 -43.6244
rtoes 26.6149
lfemur -13.9726 -20.4818 11.7234
ltibia 32.1167
lfoot -38.1809 6.79279
ltoes -36.5593
195
root 4.58417 17.0783 15.352 -157.091 -16.1509 185.853
lowerback -23.4273 -8.3814 -14.6114
upperback -0.805277 -7.64475 -0.546636
thorax 13.2424 -4.57416 4.50414
lowerneck -1.73383 -6.69974 -1.07165
upperneck 20.9356 -12.8934 7.64724
head 7.28912 -6.46253 1.64597
rclavicle 3.61788e-014 2.8625e-014
rhumerus -66.4148 -4.66763 -78.433
rradius 44.5165
rwrist -11.4861
rhand 0.079867 -52.2272
rfingers 7.12502
rthumb 25.6669 -80.517
lclavicle 3.61788e-014 2.8625e-014
lhumerus -36.1007 -25.2575 55.6599
lradius 46.9018
lwrist 7.46236
lhand -20.4052 -10.8202
lfingers 7.12502
lthumb 5.94859 19.0763
rfemur -36.9168 7.19526 -20.3288
rtibia 3.40052
rfoot -7.89523 -43.3504
rtoes 26.2299
lfemur -13.9301 -20.3183 11.8495
ltibia 31.9068
lfoot -38.3445 6.58163
ltoes -36.2255
196
root 4.71302 16.9841 15.2444 -156.655 -16.2764 185.351
lowerback -23.3839 -8.26395 -14.5245
upperback -0.733515 -7.49884 -0.579637
thorax 13.2634 -4.50147 4.48431
lowerneck -1.8549 -6.70935 -0.991961
upperneck 20.712 -12.7401 7.3797
head 7.20509 -6.37419 1.56331
rclavicle 1.70955e-014 -6.36111e-014
rhumerus -66.4546 -4.25029 -78.5729
rradius 44.2727
rwrist -11.5221
rhand 0.15386 -51.1108
rfingers 7.12502
rthumb 25.7377 -79.3903
lclavicle 1.70955e-014 -6.36111e-014
lhumerus -36.2549 -25.3367 55.6623
lradius 47.1605
lwrist 7.51637
lhand -20.6874 -10.7988
lfingers 7.12502
lthumb 5.67619 19.1051
rfemur -37.1815 7.04943 -20.2775
rtibia 3.86442
rfoot -6.01599 -42.7802
rtoes 26.3504
lfemur -13.8248 -20.0229 12.1002
ltibia 31.5926
lfoot -38.4338 6.61547
ltoes -37.0564
197
root 4.8398 16.8814 15.1363 -156.018 -16.3939 184.848
lowerback -23.5027 -8.22651 -14.3186
upperback -0.702549 -7.47742 -0.555816
thorax 13.3371 -4.48104 4.40101
lowerneck -1.62251 -6.71414 -0.981605
upperneck 20.1297 -12.5331 7.20153
head 6.94981 -6.27626 1.54917
rclavicle 5.92378e-014 6.04305e-014
rhumerus -66.4846 -3.60295 -78.7306
rradius 44.1726
rwrist -11.3716
rhand 0.985912 -50.1966
rfingers 7.12502
rthumb 26.5344 -78.3582
lclavicle 5.92378e-014 6.04305e-014
lhumerus -36.635 -25.0535 55.6458
lradius 47.4686
lwrist 7.43269
lhand -21.0664 -10.8602
lfingers 7.12502
lthumb 5.31027 19.0532
rfemur -37.6359 6.45746 -20.0425
rtibia 4.39024
rfoot -3.29589 -42.1107
rtoes 25.5627
lfemur -13.9624 -19.6406 12.4236
ltibia 31.4247
lfoot -38.5005 7.32304
ltoes -40.2541
198
root 4.96736 16.7727 15.0383 -155.221 -16.4672 184.121
lowerback -23.5401 -8.19447 -14.1675
upperback -0.756963 -7.47528 -0.633444
thorax 13.2639 -4.46809 4.24167
lowerneck -1.3919 -6.75399 -0.963825
upperneck 19.6923 -12.4496 7.0946
head 6.75478 -6.23906 1.54207
rclavicle 3.81667e-014 1.39944e-013
rhumerus -66.6557 -2.98017 -78.9664
rradius 44.1484
rwrist -11.2284
rhand 1.36805 -50.0596
rfingers 7.12502
rthumb 26.9001 -78.1654
lclavicle 3.81667e-014 1.39944e-013
lhumerus -37.1468 -24.8423 55.6021
lradius 47.8272
lwrist 7.52291
lhand -21.446 -10.737
lfingers 7.12502
lthumb 4.94375 19.1854
rfemur -38.2745 5.41298 -19.8604
rtibia 5.0806
rfoot 0.546453 -41.2406
rtoes 23.4698
lfemur -14.2872 -19.3476 12.5576
ltibia 31.3247
lfoot -38.5255 7.86119
ltoes -42.7979
199
root 5.09996 16.6648 14.9422 -154.572 -16.592 183.224
lowerback -23.3069 -8.14571 -14.2156
upperback -0.765118 -7.42808 -0.769993
thorax 13.1157 -4.44333 4.1634
lowerneck -1.34534 -6.77707 -1.04728
upperneck 19.4763 -12.4271 7.16034
head 6.6844 -6.22203 1.58547
rclavicle -1.59028e-014 1.90833e-014
rhumerus -66.8422 -2.46161 -79.2259
rradius 44.0243
rwrist -11.3894
rhand 1.1203 -49.4646
rfingers 7.12502
rthumb 26.663 -77.6068
lclavicle -1.59028e-014 1.90833e-014
lhumerus -37.5716 -24.7673 55.5685
lradius 48.1516
lwrist 7.90318
lhand -21.4262 -10.6706
lfingers 7.12502
lthumb 4.96283 19.2513
rfemur -38.746 4.33437 -19.6113
rtibia 6.04322
rfoot 4.03668 -40.0764
rtoes 21.8725
lfemur -14.5159 -19.2186 12.5283
ltibia 31.1925
lfoot -38.5891 7.62279
ltoes -43.3627
200
root 5.23369 16.5575 14.8374 -154.114 -16.7714 182.356
lowerback -22.9707 -8.07937 -14.2545
upperback -0.964594 -7.35576 -0.973427
thorax 13.4188 -4.42897 4.26329
lowerneck -1.35689 -6.89367 -1.36672
upperneck 19.1933 -12.5021 7.29707
head 6.62531 -6.25304 1.67987
rclavicle -3.97569e-015 2.06736e-014
rhumerus -66.8337 -2.00904 -79.3311
rradius 43.8489
rwrist -11.4937
rhand 1.48123 -48.6174
rfingers 7.12502
rthumb 27.0084 -76.7065
lclavicle -3.97569e-015 2.06736e-014
lhumerus -37.9133 -24.5699 55.6206
lradius 48.425
lwrist 8.44588
lhand -21.2704 -10.899
lfingers 7.12502
lthumb 5.11324 19.0193
rfemur -39.0506 3.28951 -19.0397
rtibia 7.26428
rfoot 7.13443 -38.6525
rtoes 20.4466
lfemur -14.5709 -19.1621 12.4794
ltibia 31.0814
lfoot -38.7351 7.24199
ltoes -43.4315
201
root 5.3676 16.4441 14.7307 -153.594 -16.9246 181.466
lowerback -22.6983 -8.03124 -14.2262
upperback -0.814891 -7.30861 -1.02912
thorax 13.4289 -4.40335 4.21932
lowerneck -1.61386 -7.0046 -1.55339
upperneck 19.0172 -12.5082 7.12181
head 6.6121 -6.24505 1.64794
rclavicle -2.18663e-014 -2.54444e-014
rhumerus -66.7193 -1.62169 -79.3263
rradius 43.6129
rwrist -11.2758
rhand 2.321 -47.5389
rfingers 7.12502
rthumb 27.8115 -75.5009
lclavicle -2.18663e-014 -2.54444e-014
lhumerus -38.2942 -24.3425 55.6977
lradius 48.6454
lwrist 9.20757
lhand -21.2987 -11.4075
lfingers 7.12502
lthumb 5.08595 18.5114
rfemur -39.5064 1.9698 -18.2169
rtibia 8.85881
rfoot 9.38538 -37.009
rtoes 19.958
lfemur -14.6285 -19.0526 12.4077
ltibia 30.9723
lfoot -38.8133 7.2007
ltoes -44.3331
202
root 5.50248 16.3263 14.6325 -152.961 -16.9958 180.468
lowerback -22.4227 -7.96667 -14.2112
upperback -0.670021 -7.23783 -1.13427
thorax 13.4199 -4.36724 4.1354
lowerneck -1.85556 -7.10327 -1.55565
upperneck 18.7036 -12.4746 6.90712
head 6.53713 -6.20981 1.58189
rclavicle 4.17448e-014 6.52014e-014
rhumerus -66.6102 -1.18186 -79.4445
rradius 43.3812
rwrist -10.9456
rhand 2.39471 -47.1725
rfingers 7.12502
rthumb 27.882 -75.1231
lclavicle 4.17448e-014 6.52014e-014
lhumerus -38.5734 -24.1787 55.7073
lradius 48.7901
lwrist 9.88263
lhand -21.4028 -11.5823
lfingers 7.12502
lthumb 4.98539 18.3391
rfemur -40.4352 -0.602563 -16.6658
rtibia 11.7049
rfoot 6.69473 -33.4127
rtoes 11.1709
lfemur -14.776 -18.9547 12.227
ltibia 30.8871
lfoot -38.8577 7.14236
ltoes -45.2412
203
root 5.63608 16.209 14.5431 -152.313 -16.9662 179.456
lowerback -22.0745 -7.80736 -14.1148
upperback -0.563817 -7.07863 -1.27785
thorax 13.2898 -4.28096 4.00949
lowerneck -1.8715 -7.24535 -1.58627
upperneck 18.3244 -12.5342 6.80391
head 6.41607 -6.22851 1.56002
rclavicle -2.74323e-014 -5.88403e-014
rhumerus -66.4935 -0.753876 -79.6608
rradius 43.1147
rwrist -10.7998
rhand 1.67371 -48.5243
rfingers 7.12502
rthumb 27.1925 -76.5847
lclavicle -2.74323e-014 -5.88403e-014
lhumerus -38.8185 -24.0393 55.7972
lradius 48.8578
lwrist 10.2794
lhand -21.6788 -11.1464
lfingers 7.12502
lthumb 4.71895 18.781
rfemur -41.9048 -4.08679 -14.5046
rtibia 15.8536
rfoot -2.79174 -29.8992
rtoes 13.9149
lfemur -15.0067 -18.8292 11.9813
ltibia 30.9659
lfoot -38.8532 7.72012
ltoes -47.3807
204
root 5.76783 16.0926 14.4608 -151.602 -16.919 178.454
lowerback -21.5984 -7.6077 -13.894
upperback -0.571148 -6.93604 -1.44763
thorax 12.9363 -4.18638 3.80248
lowerneck -2.10488 -7.24337 -1.2841
upperneck 18.252 -12.4001 6.32578
head 6.37808 -6.15115 1.36773
rclavicle 5.08889e-014 1.59028e-014
rhumerus -66.4071 -0.419278 -79.8463
rradius 42.7133
rwrist -10.672
rhand 1.47977 -49.3194
rfingers 7.12502
rthumb 27.007 -77.4087
lclavicle 5.08889e-014 1.59028e-014
lhumerus -39.1824 -23.9085 55.9787
lradius 48.8227
lwrist 10.9093
lhand -21.9802 -10.9778
lfingers 7.12502
lthumb 4.42788 18.956
rfemur -43.4092 -6.85372 -12.9543
rtibia 19.8038
rfoot -6.85217 -26.8427
rtoes -4.39083
lfemur -15.4481 -18.6761 11.7941
ltibia 31.2099
lfoot -38.6824 8.52537
ltoes -49.1825
205
root 5.899 15.9784 14.3898 -150.909 -16.788 177.436
lowerback -20.9358 -7.39574 -13.6767
upperback -0.583945 -6.80541 -1.61526
thorax 12.4773 -4.09453 3.61432
lowerneck -2.47279 -7.17798 -0.922103
upperneck 18.2158 -12.1754 5.79532
head 6.36528 -6.02511 1.14968
rclavicle -2.70347e-014 -4.92986e-014
rhumerus -66.1526 0.0155115 -80.0559
rradius 42.0901
rwrist -10.2345
rhand 1.7308 -48.6977
rfingers 7.12502
rthumb 27.2471 -76.7495
lclavicle -2.70347e-014 -4.92986e-014
lhumerus -39.5357 -23.6993 56.1621
lradius 48.7267
lwrist 11.5766
lhand -22.1734 -11.1595
lfingers 7.12502
lthumb 4.24138 18.778
rfemur -44.6433 -8.75452 -12.2986
rtibia 22.6715
rfoot -7.21247 -24.5884
rtoes -31.6253
lfemur -15.9417 -18.5169 11.565
ltibia 31.4989
lfoot -38.4328 8.69767
ltoes -49.4557
